# xmcd
#
# Track frame offsets: 
#        150
#        26328
#        52050
#        69671
#        93827
#        118343
#        136633
#        160193
#        190990
#        211346
#        240285
#        267469
#
# Disc length: 3863 seconds
#
# Revision: 4
# Processed by: cddbd v1.5.2PL0 Copyright (c) Steve Scherf et al.
# Submitted via: ExactAudioCopyFreeDBPlugin 1.0
#
DISCID=a40f150c
DTITLE=Ismael Serrano - Principio de incertidumbre
DYEAR=2003
DGENRE=
TTITLE0=Últimamente
TTITLE1=Principio de incertidumbre
TTITLE2=Cien dias
TTITLE3=Vine del norte
TTITLE4=Ya llegó la primavera
TTITLE5=Kilómetro cero
TTITLE6=Eres
TTITLE7=La extraña pareja
TTITLE8=Aquella tarde
TTITLE9=Pájaros en la cabeza
TTITLE10=Amo tanto la vida
TTITLE11=Plaza Garibaldi
EXTD=per ReiSombra YEAR: 2003
EXTT0=per ReiSombra
EXTT1=per ReiSombra
EXTT2=per ReiSombra
EXTT3=per ReiSombra
EXTT4=per ReiSombra
EXTT5=per ReiSombra
EXTT6=per ReiSombra
EXTT7=per ReiSombra
EXTT8=per ReiSombra
EXTT9=per ReiSombra
EXTT10=per ReiSombra
EXTT11=per ReiSombra
PLAYORDER=
